<svg xmlns="http://www.w3.org/2000/svg" xmlns:xlink="http://www.w3.org/1999/xlink" zoomAndPan="magnify" preserveAspectRatio="xMidYMid meet" version="1.2" viewBox="26.8 162.94 324.2 47.19"><defs/><g id="9514fca48b"><g style="fill:#ffffff;fill-opacity:1;"><g transform="translate(23.703169, 200.78152)"><path style="stroke:none" d="M 26.046875 -11.828125 L 3.09375 -1.09375 L 3.09375 -7.171875 L 18.4375 -13.84375 L 3.09375 -20.59375 L 3.09375 -26.640625 L 26.046875 -15.90625 Z M 26.046875 -11.828125 "/></g></g><g style="fill:#ffffff;fill-opacity:1;"><g transform="translate(51.636719, 200.78152)"><path style="stroke:none" d="M 25.859375 7.75 L 0 7.75 L 0 2.453125 L 25.859375 2.453125 Z M 25.859375 7.75 "/></g></g><g style="fill:#ffffff;fill-opacity:1;"><g transform="translate(76.29473, 200.78152)"><path style="stroke:none" d="M 26.953125 -8.546875 L 26.953125 -2.484375 L 3.96875 -13.203125 L 3.96875 -17.28125 L 26.953125 -28.015625 L 26.953125 -21.96875 L 11.609375 -15.234375 Z M 26.953125 -8.546875 "/></g></g><g style="fill:#ffffff;fill-opacity:1;"><g transform="translate(107.539101, 200.78152)"><path style="stroke:none" d=""/></g></g><g style="fill:#ffffff;fill-opacity:1;"><g transform="translate(119.627563, 200.78152)"><path style="stroke:none" d=""/></g></g><g style="fill:#ffffff;fill-opacity:1;"><g transform="translate(131.726599, 200.78152)"><path style="stroke:none" d="M 13.640625 0.828125 C 11.628906 0.828125 9.878906 0.5625 8.390625 0.03125 C 6.910156 -0.5 5.6875 -1.21875 4.71875 -2.125 C 3.757812 -3.03125 3.039062 -4.050781 2.5625 -5.1875 C 2.09375 -6.320312 1.859375 -7.492188 1.859375 -8.703125 L 8.046875 -8.6875 C 8.097656 -7.4375 8.59375 -6.390625 9.53125 -5.546875 C 10.476562 -4.703125 11.863281 -4.28125 13.6875 -4.28125 C 15.351562 -4.28125 16.582031 -4.597656 17.375 -5.234375 C 18.164062 -5.878906 18.5625 -6.71875 18.5625 -7.75 C 18.5625 -8.53125 18.335938 -9.140625 17.890625 -9.578125 C 17.453125 -10.023438 16.800781 -10.378906 15.9375 -10.640625 C 15.082031 -10.898438 14.03125 -11.117188 12.78125 -11.296875 C 11.46875 -11.472656 10.21875 -11.742188 9.03125 -12.109375 C 7.851562 -12.484375 6.8125 -13 5.90625 -13.65625 C 5 -14.320312 4.285156 -15.148438 3.765625 -16.140625 C 3.242188 -17.128906 2.984375 -18.335938 2.984375 -19.765625 C 2.984375 -21.453125 3.378906 -22.925781 4.171875 -24.1875 C 4.960938 -25.445312 6.125 -26.429688 7.65625 -27.140625 C 9.195312 -27.847656 11.078125 -28.203125 13.296875 -28.203125 C 15.492188 -28.203125 17.421875 -27.832031 19.078125 -27.09375 C 20.742188 -26.363281 22.035156 -25.335938 22.953125 -24.015625 C 23.878906 -22.691406 24.34375 -21.160156 24.34375 -19.421875 L 18.03125 -19.46875 C 17.957031 -20.476562 17.523438 -21.304688 16.734375 -21.953125 C 15.941406 -22.609375 14.800781 -22.9375 13.3125 -22.9375 C 11.925781 -22.9375 10.914062 -22.632812 10.28125 -22.03125 C 9.644531 -21.4375 9.328125 -20.722656 9.328125 -19.890625 C 9.328125 -19.222656 9.476562 -18.675781 9.78125 -18.25 C 10.082031 -17.832031 10.644531 -17.488281 11.46875 -17.21875 C 12.289062 -16.945312 13.484375 -16.6875 15.046875 -16.4375 C 16.460938 -16.21875 17.785156 -15.929688 19.015625 -15.578125 C 20.242188 -15.222656 21.3125 -14.738281 22.21875 -14.125 C 23.132812 -13.507812 23.847656 -12.71875 24.359375 -11.75 C 24.878906 -10.789062 25.140625 -9.582031 25.140625 -8.125 C 25.140625 -6.113281 24.640625 -4.445312 23.640625 -3.125 C 22.640625 -1.800781 21.269531 -0.8125 19.53125 -0.15625 C 17.800781 0.5 15.835938 0.828125 13.640625 0.828125 Z M 13.640625 0.828125 "/></g></g><g style="fill:#ffffff;fill-opacity:1;"><g transform="translate(157.210152, 200.78152)"><path style="stroke:none" d="M 16.09375 0.828125 C 14.257812 0.828125 12.5625 0.570312 11 0.0625 C 9.4375 -0.4375 8.066406 -1.226562 6.890625 -2.3125 C 5.722656 -3.394531 4.816406 -4.796875 4.171875 -6.515625 C 3.523438 -8.242188 3.203125 -10.320312 3.203125 -12.75 L 3.203125 -27.375 L 9.59375 -27.375 L 9.59375 -12.9375 C 9.59375 -10.414062 10.132812 -8.488281 11.21875 -7.15625 C 12.300781 -5.832031 13.914062 -5.171875 16.0625 -5.171875 C 18.226562 -5.171875 19.84375 -5.835938 20.90625 -7.171875 C 21.96875 -8.515625 22.5 -10.4375 22.5 -12.9375 L 22.5 -27.375 L 28.921875 -27.375 L 28.921875 -12.75 C 28.921875 -10.320312 28.597656 -8.242188 27.953125 -6.515625 C 27.304688 -4.796875 26.394531 -3.394531 25.21875 -2.3125 C 24.050781 -1.226562 22.6875 -0.4375 21.125 0.0625 C 19.570312 0.570312 17.894531 0.828125 16.09375 0.828125 Z M 16.09375 0.828125 "/></g></g><g style="fill:#ffffff;fill-opacity:1;"><g transform="translate(188.126307, 200.78152)"><path style="stroke:none" d="M 15.078125 0.828125 C 13.140625 0.828125 11.359375 0.457031 9.734375 -0.28125 C 8.109375 -1.03125 6.707031 -2.070312 5.53125 -3.40625 C 4.363281 -4.738281 3.457031 -6.285156 2.8125 -8.046875 C 2.164062 -9.804688 1.84375 -11.6875 1.84375 -13.6875 C 1.84375 -15.695312 2.15625 -17.578125 2.78125 -19.328125 C 3.414062 -21.078125 4.320312 -22.613281 5.5 -23.9375 C 6.675781 -25.269531 8.082031 -26.3125 9.71875 -27.0625 C 11.351562 -27.820312 13.164062 -28.203125 15.15625 -28.203125 C 16.644531 -28.203125 18 -27.941406 19.21875 -27.421875 C 20.4375 -26.898438 21.484375 -26.234375 22.359375 -25.421875 C 23.234375 -24.609375 23.910156 -23.769531 24.390625 -22.90625 L 24.265625 -25.75 L 24.265625 -37.5 L 30.6875 -37.5 L 30.6875 0 L 24.5625 0 L 24.5625 -4.609375 C 24.019531 -3.648438 23.296875 -2.753906 22.390625 -1.921875 C 21.492188 -1.097656 20.429688 -0.4375 19.203125 0.0625 C 17.972656 0.570312 16.597656 0.828125 15.078125 0.828125 Z M 16.25 -5.109375 C 17.363281 -5.109375 18.410156 -5.328125 19.390625 -5.765625 C 20.367188 -6.203125 21.222656 -6.8125 21.953125 -7.59375 C 22.691406 -8.375 23.269531 -9.28125 23.6875 -10.3125 C 24.101562 -11.351562 24.3125 -12.476562 24.3125 -13.6875 C 24.3125 -14.894531 24.109375 -16.015625 23.703125 -17.046875 C 23.296875 -18.078125 22.722656 -18.984375 21.984375 -19.765625 C 21.242188 -20.546875 20.382812 -21.148438 19.40625 -21.578125 C 18.4375 -22.015625 17.382812 -22.234375 16.25 -22.234375 C 14.738281 -22.234375 13.367188 -21.863281 12.140625 -21.125 C 10.921875 -20.394531 9.953125 -19.390625 9.234375 -18.109375 C 8.523438 -16.828125 8.171875 -15.351562 8.171875 -13.6875 C 8.171875 -12.070312 8.515625 -10.613281 9.203125 -9.3125 C 9.898438 -8.019531 10.859375 -6.992188 12.078125 -6.234375 C 13.296875 -5.484375 14.6875 -5.109375 16.25 -5.109375 Z M 16.25 -5.109375 "/></g></g><g style="fill:#ffffff;fill-opacity:1;"><g transform="translate(221.359306, 200.78152)"><path style="stroke:none" d="M 16.21875 0.828125 C 14.144531 0.828125 12.226562 0.457031 10.46875 -0.28125 C 8.707031 -1.03125 7.179688 -2.070312 5.890625 -3.40625 C 4.609375 -4.738281 3.613281 -6.285156 2.90625 -8.046875 C 2.195312 -9.804688 1.84375 -11.6875 1.84375 -13.6875 C 1.84375 -15.695312 2.195312 -17.578125 2.90625 -19.328125 C 3.613281 -21.078125 4.609375 -22.613281 5.890625 -23.9375 C 7.179688 -25.269531 8.707031 -26.3125 10.46875 -27.0625 C 12.226562 -27.820312 14.15625 -28.203125 16.25 -28.203125 C 18.363281 -28.203125 20.296875 -27.820312 22.046875 -27.0625 C 23.804688 -26.3125 25.332031 -25.269531 26.625 -23.9375 C 27.925781 -22.613281 28.929688 -21.078125 29.640625 -19.328125 C 30.347656 -17.578125 30.703125 -15.695312 30.703125 -13.6875 C 30.703125 -11.664062 30.347656 -9.78125 29.640625 -8.03125 C 28.929688 -6.28125 27.925781 -4.738281 26.625 -3.40625 C 25.332031 -2.070312 23.800781 -1.03125 22.03125 -0.28125 C 20.269531 0.457031 18.332031 0.828125 16.21875 0.828125 Z M 16.28125 -5.171875 C 17.820312 -5.171875 19.195312 -5.535156 20.40625 -6.265625 C 21.613281 -7.003906 22.566406 -8.015625 23.265625 -9.296875 C 23.960938 -10.578125 24.3125 -12.039062 24.3125 -13.6875 C 24.3125 -15.34375 23.960938 -16.8125 23.265625 -18.09375 C 22.566406 -19.382812 21.613281 -20.394531 20.40625 -21.125 C 19.195312 -21.863281 17.820312 -22.234375 16.28125 -22.234375 C 14.75 -22.234375 13.375 -21.863281 12.15625 -21.125 C 10.9375 -20.394531 9.976562 -19.382812 9.28125 -18.09375 C 8.582031 -16.8125 8.234375 -15.34375 8.234375 -13.6875 C 8.234375 -12.039062 8.582031 -10.578125 9.28125 -9.296875 C 9.976562 -8.015625 10.9375 -7.003906 12.15625 -6.265625 C 13.375 -5.535156 14.75 -5.171875 16.28125 -5.171875 Z M 16.28125 -5.171875 "/></g></g><g style="fill:#ffffff;fill-opacity:1;"><g transform="translate(252.701548, 200.78152)"><path style="stroke:none" d=""/></g></g><g style="fill:#ffffff;fill-opacity:1;"><g transform="translate(264.79001, 200.78152)"><path style="stroke:none" d="M 10.234375 9.34375 L 3.78125 9.34375 L 3.78125 -27.375 L 9.90625 -27.375 L 9.90625 -22.765625 C 10.90625 -24.421875 12.226562 -25.734375 13.875 -26.703125 C 15.53125 -27.679688 17.34375 -28.171875 19.3125 -28.171875 C 21.257812 -28.171875 23.046875 -27.796875 24.671875 -27.046875 C 26.296875 -26.296875 27.703125 -25.257812 28.890625 -23.9375 C 30.085938 -22.613281 31.015625 -21.078125 31.671875 -19.328125 C 32.328125 -17.578125 32.65625 -15.695312 32.65625 -13.6875 C 32.65625 -11.6875 32.328125 -9.804688 31.671875 -8.046875 C 31.015625 -6.285156 30.085938 -4.738281 28.890625 -3.40625 C 27.691406 -2.070312 26.285156 -1.03125 24.671875 -0.28125 C 23.066406 0.457031 21.304688 0.828125 19.390625 0.828125 C 18.054688 0.828125 16.796875 0.609375 15.609375 0.171875 C 14.421875 -0.265625 13.351562 -0.875 12.40625 -1.65625 C 11.46875 -2.445312 10.695312 -3.367188 10.09375 -4.421875 L 10.234375 -1.25 Z M 18.21875 -5.109375 C 19.675781 -5.109375 21.007812 -5.453125 22.21875 -6.140625 C 23.4375 -6.835938 24.414062 -7.828125 25.15625 -9.109375 C 25.894531 -10.398438 26.265625 -11.925781 26.265625 -13.6875 C 26.265625 -15.414062 25.898438 -16.914062 25.171875 -18.1875 C 24.441406 -19.46875 23.46875 -20.460938 22.25 -21.171875 C 21.03125 -21.878906 19.675781 -22.234375 18.1875 -22.234375 C 17.070312 -22.234375 16.03125 -22.015625 15.0625 -21.578125 C 14.09375 -21.148438 13.238281 -20.546875 12.5 -19.765625 C 11.769531 -18.984375 11.191406 -18.078125 10.765625 -17.046875 C 10.347656 -16.015625 10.140625 -14.894531 10.140625 -13.6875 C 10.140625 -12.445312 10.351562 -11.300781 10.78125 -10.25 C 11.207031 -9.207031 11.789062 -8.296875 12.53125 -7.515625 C 13.28125 -6.742188 14.144531 -6.148438 15.125 -5.734375 C 16.101562 -5.316406 17.132812 -5.109375 18.21875 -5.109375 Z M 18.21875 -5.109375 "/></g></g><g style="fill:#ffffff;fill-opacity:1;"><g transform="translate(298.07627, 200.78152)"><path style="stroke:none" d="M 15.078125 0.828125 C 13.140625 0.828125 11.359375 0.457031 9.734375 -0.28125 C 8.109375 -1.03125 6.707031 -2.070312 5.53125 -3.40625 C 4.363281 -4.738281 3.457031 -6.285156 2.8125 -8.046875 C 2.164062 -9.804688 1.84375 -11.6875 1.84375 -13.6875 C 1.84375 -15.695312 2.15625 -17.578125 2.78125 -19.328125 C 3.414062 -21.078125 4.320312 -22.613281 5.5 -23.9375 C 6.675781 -25.269531 8.082031 -26.3125 9.71875 -27.0625 C 11.351562 -27.820312 13.164062 -28.203125 15.15625 -28.203125 C 16.644531 -28.203125 18 -27.941406 19.21875 -27.421875 C 20.4375 -26.898438 21.484375 -26.234375 22.359375 -25.421875 C 23.234375 -24.609375 23.910156 -23.769531 24.390625 -22.90625 L 24.265625 -25.75 L 24.265625 -37.5 L 30.6875 -37.5 L 30.6875 0 L 24.5625 0 L 24.5625 -4.609375 C 24.019531 -3.648438 23.296875 -2.753906 22.390625 -1.921875 C 21.492188 -1.097656 20.429688 -0.4375 19.203125 0.0625 C 17.972656 0.570312 16.597656 0.828125 15.078125 0.828125 Z M 16.25 -5.109375 C 17.363281 -5.109375 18.410156 -5.328125 19.390625 -5.765625 C 20.367188 -6.203125 21.222656 -6.8125 21.953125 -7.59375 C 22.691406 -8.375 23.269531 -9.28125 23.6875 -10.3125 C 24.101562 -11.351562 24.3125 -12.476562 24.3125 -13.6875 C 24.3125 -14.894531 24.109375 -16.015625 23.703125 -17.046875 C 23.296875 -18.078125 22.722656 -18.984375 21.984375 -19.765625 C 21.242188 -20.546875 20.382812 -21.148438 19.40625 -21.578125 C 18.4375 -22.015625 17.382812 -22.234375 16.25 -22.234375 C 14.738281 -22.234375 13.367188 -21.863281 12.140625 -21.125 C 10.921875 -20.394531 9.953125 -19.390625 9.234375 -18.109375 C 8.523438 -16.828125 8.171875 -15.351562 8.171875 -13.6875 C 8.171875 -12.070312 8.515625 -10.613281 9.203125 -9.3125 C 9.898438 -8.019531 10.859375 -6.992188 12.078125 -6.234375 C 13.296875 -5.484375 14.6875 -5.109375 16.25 -5.109375 Z M 16.25 -5.109375 "/></g></g><g style="fill:#ffffff;fill-opacity:1;"><g transform="translate(331.309258, 200.78152)"><path style="stroke:none" d="M 12.390625 0 L 5.9375 0 L 5.9375 -21.859375 L 0.484375 -21.859375 L 0.484375 -27.375 L 5.9375 -27.375 L 5.9375 -28.953125 C 5.9375 -29.992188 6.09375 -31.039062 6.40625 -32.09375 C 6.71875 -33.144531 7.207031 -34.101562 7.875 -34.96875 C 8.539062 -35.84375 9.414062 -36.539062 10.5 -37.0625 C 11.582031 -37.582031 12.894531 -37.84375 14.4375 -37.84375 L 19.6875 -37.84375 L 19.6875 -32.5 L 16.0625 -32.5 C 15.257812 -32.5 14.585938 -32.3125 14.046875 -31.9375 C 13.503906 -31.5625 13.09375 -31.066406 12.8125 -30.453125 C 12.53125 -29.835938 12.390625 -29.171875 12.390625 -28.453125 L 12.390625 -27.375 L 19.546875 -27.375 L 19.546875 -21.859375 L 12.390625 -21.859375 Z M 12.390625 0 "/></g></g></g></svg>