<svg xmlns="http://www.w3.org/2000/svg" xmlns:xlink="http://www.w3.org/1999/xlink" zoomAndPan="magnify" preserveAspectRatio="xMidYMid meet" version="1.2" viewBox="93.69 172.42 189.31 28.63"><defs></defs><g id="0e3533df36"><g style="fill:#000000;fill-opacity:1;"><g transform="translate(91.815767, 195.374987)"><path style="stroke:none" d="M 15.796875 -7.171875 L 1.875 -0.65625 L 1.875 -4.34375 L 11.171875 -8.40625 L 1.875 -12.484375 L 1.875 -16.15625 L 15.796875 -9.640625 Z M 15.796875 -7.171875 "></path></g></g><g style="fill:#000000;fill-opacity:1;"><g transform="translate(108.759694, 195.374987)"><path style="stroke:none" d="M 15.6875 4.703125 L 0 4.703125 L 0 1.484375 L 15.6875 1.484375 Z M 15.6875 4.703125 "></path></g></g><g style="fill:#000000;fill-opacity:1;"><g transform="translate(123.716766, 195.374987)"><path style="stroke:none" d="M 16.34375 -5.1875 L 16.34375 -1.5 L 2.40625 -8.015625 L 2.40625 -10.484375 L 16.34375 -16.984375 L 16.34375 -13.328125 L 7.046875 -9.234375 Z M 16.34375 -5.1875 "></path></g></g><g style="fill:#000000;fill-opacity:1;"><g transform="translate(142.663707, 195.374987)"><path style="stroke:none" d=""></path></g></g><g style="fill:#000000;fill-opacity:1;"><g transform="translate(149.996405, 195.374987)"><path style="stroke:none" d="M 8.265625 0.5 C 7.046875 0.5 5.988281 0.335938 5.09375 0.015625 C 4.195312 -0.304688 3.453125 -0.738281 2.859375 -1.28125 C 2.273438 -1.832031 1.835938 -2.453125 1.546875 -3.140625 C 1.265625 -3.835938 1.125 -4.550781 1.125 -5.28125 L 4.875 -5.265625 C 4.90625 -4.515625 5.207031 -3.878906 5.78125 -3.359375 C 6.351562 -2.847656 7.191406 -2.59375 8.296875 -2.59375 C 9.304688 -2.59375 10.050781 -2.785156 10.53125 -3.171875 C 11.007812 -3.566406 11.25 -4.078125 11.25 -4.703125 C 11.25 -5.171875 11.113281 -5.539062 10.84375 -5.8125 C 10.582031 -6.082031 10.191406 -6.296875 9.671875 -6.453125 C 9.148438 -6.609375 8.507812 -6.738281 7.75 -6.84375 C 6.957031 -6.957031 6.203125 -7.125 5.484375 -7.34375 C 4.765625 -7.570312 4.128906 -7.882812 3.578125 -8.28125 C 3.035156 -8.6875 2.601562 -9.1875 2.28125 -9.78125 C 1.96875 -10.382812 1.8125 -11.117188 1.8125 -11.984375 C 1.8125 -13.003906 2.050781 -13.894531 2.53125 -14.65625 C 3.007812 -15.425781 3.710938 -16.023438 4.640625 -16.453125 C 5.578125 -16.890625 6.71875 -17.109375 8.0625 -17.109375 C 9.394531 -17.109375 10.5625 -16.882812 11.5625 -16.4375 C 12.570312 -15.988281 13.359375 -15.363281 13.921875 -14.5625 C 14.484375 -13.757812 14.765625 -12.832031 14.765625 -11.78125 L 10.9375 -11.8125 C 10.894531 -12.425781 10.632812 -12.925781 10.15625 -13.3125 C 9.675781 -13.707031 8.984375 -13.90625 8.078125 -13.90625 C 7.234375 -13.90625 6.617188 -13.722656 6.234375 -13.359375 C 5.847656 -13.003906 5.65625 -12.570312 5.65625 -12.0625 C 5.65625 -11.65625 5.742188 -11.320312 5.921875 -11.0625 C 6.109375 -10.8125 6.453125 -10.601562 6.953125 -10.4375 C 7.453125 -10.269531 8.175781 -10.113281 9.125 -9.96875 C 9.988281 -9.832031 10.789062 -9.65625 11.53125 -9.4375 C 12.269531 -9.226562 12.914062 -8.9375 13.46875 -8.5625 C 14.03125 -8.195312 14.46875 -7.71875 14.78125 -7.125 C 15.09375 -6.539062 15.25 -5.804688 15.25 -4.921875 C 15.25 -3.703125 14.941406 -2.691406 14.328125 -1.890625 C 13.722656 -1.085938 12.894531 -0.488281 11.84375 -0.09375 C 10.789062 0.300781 9.597656 0.5 8.265625 0.5 Z M 8.265625 0.5 "></path></g></g><g style="fill:#000000;fill-opacity:1;"><g transform="translate(165.454225, 195.374987)"><path style="stroke:none" d="M 9.75 0.5 C 8.644531 0.5 7.617188 0.34375 6.671875 0.03125 C 5.722656 -0.269531 4.894531 -0.75 4.1875 -1.40625 C 3.476562 -2.0625 2.925781 -2.910156 2.53125 -3.953125 C 2.132812 -5.003906 1.9375 -6.265625 1.9375 -7.734375 L 1.9375 -16.609375 L 5.8125 -16.609375 L 5.8125 -7.84375 C 5.8125 -6.320312 6.140625 -5.15625 6.796875 -4.34375 C 7.453125 -3.539062 8.429688 -3.140625 9.734375 -3.140625 C 11.046875 -3.140625 12.023438 -3.546875 12.671875 -4.359375 C 13.316406 -5.171875 13.640625 -6.332031 13.640625 -7.84375 L 13.640625 -16.609375 L 17.546875 -16.609375 L 17.546875 -7.734375 C 17.546875 -6.265625 17.347656 -5.003906 16.953125 -3.953125 C 16.554688 -2.910156 16.003906 -2.0625 15.296875 -1.40625 C 14.585938 -0.75 13.757812 -0.269531 12.8125 0.03125 C 11.875 0.34375 10.851562 0.5 9.75 0.5 Z M 9.75 0.5 "></path></g></g><g style="fill:#000000;fill-opacity:1;"><g transform="translate(184.207325, 195.374987)"><path style="stroke:none" d="M 9.140625 0.5 C 7.960938 0.5 6.878906 0.273438 5.890625 -0.171875 C 4.910156 -0.628906 4.066406 -1.257812 3.359375 -2.0625 C 2.648438 -2.875 2.097656 -3.8125 1.703125 -4.875 C 1.304688 -5.945312 1.109375 -7.085938 1.109375 -8.296875 C 1.109375 -9.515625 1.300781 -10.65625 1.6875 -11.71875 C 2.070312 -12.78125 2.617188 -13.710938 3.328125 -14.515625 C 4.046875 -15.328125 4.898438 -15.960938 5.890625 -16.421875 C 6.878906 -16.878906 7.976562 -17.109375 9.1875 -17.109375 C 10.09375 -17.109375 10.914062 -16.945312 11.65625 -16.625 C 12.394531 -16.3125 13.03125 -15.910156 13.5625 -15.421875 C 14.09375 -14.929688 14.503906 -14.421875 14.796875 -13.890625 L 14.71875 -15.625 L 14.71875 -22.734375 L 18.609375 -22.734375 L 18.609375 0 L 14.890625 0 L 14.890625 -2.796875 C 14.566406 -2.210938 14.128906 -1.671875 13.578125 -1.171875 C 13.035156 -0.671875 12.390625 -0.269531 11.640625 0.03125 C 10.898438 0.34375 10.066406 0.5 9.140625 0.5 Z M 9.859375 -3.09375 C 10.535156 -3.09375 11.164062 -3.222656 11.75 -3.484375 C 12.34375 -3.753906 12.863281 -4.125 13.3125 -4.59375 C 13.757812 -5.070312 14.109375 -5.625 14.359375 -6.25 C 14.617188 -6.882812 14.75 -7.566406 14.75 -8.296875 C 14.75 -9.035156 14.625 -9.71875 14.375 -10.34375 C 14.125 -10.96875 13.773438 -11.515625 13.328125 -11.984375 C 12.878906 -12.453125 12.359375 -12.816406 11.765625 -13.078125 C 11.179688 -13.347656 10.546875 -13.484375 9.859375 -13.484375 C 8.941406 -13.484375 8.109375 -13.257812 7.359375 -12.8125 C 6.617188 -12.363281 6.03125 -11.75 5.59375 -10.96875 C 5.164062 -10.195312 4.953125 -9.304688 4.953125 -8.296875 C 4.953125 -7.316406 5.160156 -6.429688 5.578125 -5.640625 C 6.003906 -4.859375 6.585938 -4.238281 7.328125 -3.78125 C 8.066406 -3.320312 8.910156 -3.09375 9.859375 -3.09375 Z M 9.859375 -3.09375 "></path></g></g><g style="fill:#000000;fill-opacity:1;"><g transform="translate(204.365771, 195.374987)"><path style="stroke:none" d="M 9.84375 0.5 C 8.582031 0.5 7.414062 0.273438 6.34375 -0.171875 C 5.28125 -0.628906 4.359375 -1.257812 3.578125 -2.0625 C 2.796875 -2.875 2.1875 -3.8125 1.75 -4.875 C 1.320312 -5.945312 1.109375 -7.085938 1.109375 -8.296875 C 1.109375 -9.515625 1.320312 -10.65625 1.75 -11.71875 C 2.1875 -12.78125 2.796875 -13.710938 3.578125 -14.515625 C 4.359375 -15.328125 5.28125 -15.960938 6.34375 -16.421875 C 7.414062 -16.878906 8.585938 -17.109375 9.859375 -17.109375 C 11.140625 -17.109375 12.3125 -16.878906 13.375 -16.421875 C 14.4375 -15.960938 15.359375 -15.328125 16.140625 -14.515625 C 16.929688 -13.710938 17.539062 -12.78125 17.96875 -11.71875 C 18.40625 -10.65625 18.625 -9.515625 18.625 -8.296875 C 18.625 -7.066406 18.40625 -5.921875 17.96875 -4.859375 C 17.539062 -3.804688 16.929688 -2.875 16.140625 -2.0625 C 15.359375 -1.257812 14.429688 -0.628906 13.359375 -0.171875 C 12.296875 0.273438 11.125 0.5 9.84375 0.5 Z M 9.875 -3.140625 C 10.8125 -3.140625 11.644531 -3.359375 12.375 -3.796875 C 13.101562 -4.242188 13.679688 -4.851562 14.109375 -5.625 C 14.535156 -6.40625 14.75 -7.296875 14.75 -8.296875 C 14.75 -9.296875 14.535156 -10.1875 14.109375 -10.96875 C 13.679688 -11.75 13.101562 -12.363281 12.375 -12.8125 C 11.644531 -13.257812 10.8125 -13.484375 9.875 -13.484375 C 8.945312 -13.484375 8.113281 -13.257812 7.375 -12.8125 C 6.632812 -12.363281 6.050781 -11.75 5.625 -10.96875 C 5.195312 -10.1875 4.984375 -9.296875 4.984375 -8.296875 C 4.984375 -7.296875 5.195312 -6.40625 5.625 -5.625 C 6.050781 -4.851562 6.632812 -4.242188 7.375 -3.796875 C 8.113281 -3.359375 8.945312 -3.140625 9.875 -3.140625 Z M 9.875 -3.140625 "></path></g></g><g style="fill:#000000;fill-opacity:1;"><g transform="translate(223.377325, 195.374987)"><path style="stroke:none" d=""></path></g></g><g style="fill:#000000;fill-opacity:1;"><g transform="translate(230.710023, 195.374987)"><path style="stroke:none" d="M 6.203125 5.671875 L 2.296875 5.671875 L 2.296875 -16.609375 L 6.015625 -16.609375 L 6.015625 -13.8125 C 6.609375 -14.8125 7.40625 -15.609375 8.40625 -16.203125 C 9.414062 -16.796875 10.515625 -17.09375 11.703125 -17.09375 C 12.890625 -17.09375 13.972656 -16.863281 14.953125 -16.40625 C 15.941406 -15.945312 16.796875 -15.316406 17.515625 -14.515625 C 18.242188 -13.710938 18.804688 -12.78125 19.203125 -11.71875 C 19.597656 -10.65625 19.796875 -9.515625 19.796875 -8.296875 C 19.796875 -7.085938 19.597656 -5.945312 19.203125 -4.875 C 18.804688 -3.8125 18.242188 -2.875 17.515625 -2.0625 C 16.785156 -1.257812 15.929688 -0.628906 14.953125 -0.171875 C 13.984375 0.273438 12.921875 0.5 11.765625 0.5 C 10.953125 0.5 10.179688 0.363281 9.453125 0.09375 C 8.734375 -0.164062 8.085938 -0.535156 7.515625 -1.015625 C 6.953125 -1.492188 6.488281 -2.050781 6.125 -2.6875 L 6.203125 -0.765625 Z M 11.046875 -3.09375 C 11.929688 -3.09375 12.738281 -3.300781 13.46875 -3.71875 C 14.207031 -4.144531 14.800781 -4.75 15.25 -5.53125 C 15.695312 -6.3125 15.921875 -7.234375 15.921875 -8.296875 C 15.921875 -9.347656 15.695312 -10.257812 15.25 -11.03125 C 14.8125 -11.800781 14.222656 -12.398438 13.484375 -12.828125 C 12.753906 -13.265625 11.9375 -13.484375 11.03125 -13.484375 C 10.351562 -13.484375 9.71875 -13.347656 9.125 -13.078125 C 8.539062 -12.816406 8.023438 -12.453125 7.578125 -11.984375 C 7.128906 -11.515625 6.78125 -10.96875 6.53125 -10.34375 C 6.28125 -9.71875 6.15625 -9.035156 6.15625 -8.296875 C 6.15625 -7.546875 6.28125 -6.851562 6.53125 -6.21875 C 6.789062 -5.582031 7.144531 -5.03125 7.59375 -4.5625 C 8.050781 -4.09375 8.578125 -3.726562 9.171875 -3.46875 C 9.765625 -3.21875 10.390625 -3.09375 11.046875 -3.09375 Z M 11.046875 -3.09375 "></path></g></g><g style="fill:#000000;fill-opacity:1;"><g transform="translate(250.900776, 195.374987)"><path style="stroke:none" d="M 9.140625 0.5 C 7.960938 0.5 6.878906 0.273438 5.890625 -0.171875 C 4.910156 -0.628906 4.066406 -1.257812 3.359375 -2.0625 C 2.648438 -2.875 2.097656 -3.8125 1.703125 -4.875 C 1.304688 -5.945312 1.109375 -7.085938 1.109375 -8.296875 C 1.109375 -9.515625 1.300781 -10.65625 1.6875 -11.71875 C 2.070312 -12.78125 2.617188 -13.710938 3.328125 -14.515625 C 4.046875 -15.328125 4.898438 -15.960938 5.890625 -16.421875 C 6.878906 -16.878906 7.976562 -17.109375 9.1875 -17.109375 C 10.09375 -17.109375 10.914062 -16.945312 11.65625 -16.625 C 12.394531 -16.3125 13.03125 -15.910156 13.5625 -15.421875 C 14.09375 -14.929688 14.503906 -14.421875 14.796875 -13.890625 L 14.71875 -15.625 L 14.71875 -22.734375 L 18.609375 -22.734375 L 18.609375 0 L 14.890625 0 L 14.890625 -2.796875 C 14.566406 -2.210938 14.128906 -1.671875 13.578125 -1.171875 C 13.035156 -0.671875 12.390625 -0.269531 11.640625 0.03125 C 10.898438 0.34375 10.066406 0.5 9.140625 0.5 Z M 9.859375 -3.09375 C 10.535156 -3.09375 11.164062 -3.222656 11.75 -3.484375 C 12.34375 -3.753906 12.863281 -4.125 13.3125 -4.59375 C 13.757812 -5.070312 14.109375 -5.625 14.359375 -6.25 C 14.617188 -6.882812 14.75 -7.566406 14.75 -8.296875 C 14.75 -9.035156 14.625 -9.71875 14.375 -10.34375 C 14.125 -10.96875 13.773438 -11.515625 13.328125 -11.984375 C 12.878906 -12.453125 12.359375 -12.816406 11.765625 -13.078125 C 11.179688 -13.347656 10.546875 -13.484375 9.859375 -13.484375 C 8.941406 -13.484375 8.109375 -13.257812 7.359375 -12.8125 C 6.617188 -12.363281 6.03125 -11.75 5.59375 -10.96875 C 5.164062 -10.195312 4.953125 -9.304688 4.953125 -8.296875 C 4.953125 -7.316406 5.160156 -6.429688 5.578125 -5.640625 C 6.003906 -4.859375 6.585938 -4.238281 7.328125 -3.78125 C 8.066406 -3.320312 8.910156 -3.09375 9.859375 -3.09375 Z M 9.859375 -3.09375 "></path></g></g><g style="fill:#000000;fill-opacity:1;"><g transform="translate(271.059222, 195.374987)"><path style="stroke:none" d="M 7.515625 0 L 3.609375 0 L 3.609375 -13.265625 L 0.296875 -13.265625 L 0.296875 -16.609375 L 3.609375 -16.609375 L 3.609375 -17.5625 C 3.609375 -18.195312 3.703125 -18.832031 3.890625 -19.46875 C 4.078125 -20.101562 4.367188 -20.679688 4.765625 -21.203125 C 5.171875 -21.734375 5.703125 -22.15625 6.359375 -22.46875 C 7.015625 -22.789062 7.8125 -22.953125 8.75 -22.953125 L 11.9375 -22.953125 L 11.9375 -19.703125 L 9.734375 -19.703125 C 9.253906 -19.703125 8.847656 -19.585938 8.515625 -19.359375 C 8.191406 -19.140625 7.941406 -18.84375 7.765625 -18.46875 C 7.597656 -18.09375 7.515625 -17.6875 7.515625 -17.25 L 7.515625 -16.609375 L 11.859375 -16.609375 L 11.859375 -13.265625 L 7.515625 -13.265625 Z M 7.515625 0 "></path></g></g></g></svg>